<svg width="75" height="75" viewBox="0 0 75 75" fill="none" xmlns="http://www.w3.org/2000/svg">
<path fill-rule="evenodd" clip-rule="evenodd" d="M14.5 34L0 49L11.5 63.5V49H19V54.5H20V60H21V64H22V67L30.5 74.5V60.5L37 67H38L45 60.5V74.5L54 65.5V60.5H55V53.5H56V49H64V63.5L74.5 50V48L61 34V33.5L74.5 16V15L48.5 0V7.5L59.5 18V19.5L53 25.5H52L38 11H37L23 25.5H22L15.5 19V18L26.5 7.5V1L25.5 0L0 15L14.5 34ZM30.5 40C30.5 43.5899 27.5899 46.5 24 46.5C20.4101 46.5 17.5 43.5899 17.5 40C17.5 36.4101 20.4101 33.5 24 33.5C27.5899 33.5 30.5 36.4101 30.5 40ZM37.5 33.5C39.7091 33.5 41.5 31.7091 41.5 29.5C41.5 27.2909 39.7091 25.5 37.5 25.5C35.2909 25.5 33.5 27.2909 33.5 29.5C33.5 31.7091 35.2909 33.5 37.5 33.5ZM57.5 39C57.5 42.5899 54.5899 45.5 51 45.5C47.4101 45.5 44.5 42.5899 44.5 39C44.5 35.4101 47.4101 32.5 51 32.5C54.5899 32.5 57.5 35.4101 57.5 39ZM37.5 52.5C39.7091 52.5 41.5 50.7091 41.5 48.5C41.5 46.2909 39.7091 44.5 37.5 44.5C35.2909 44.5 33.5 46.2909 33.5 48.5C33.5 50.7091 35.2909 52.5 37.5 52.5Z" fill="#C4C4C4"/>
</svg>
