<svg width="71" height="82" viewBox="0 0 71 82" fill="none" xmlns="http://www.w3.org/2000/svg">
<path d="M33.6052 63.5H32.1052C30.5052 63.1 26.1052 69.3333 24.1052 72.5L42.1052 71.5C43.3052 69.9 53.9385 77.8333 59.1052 82C61.9052 82 67.6052 68 70.1052 61V47.5H69.6052C67.2052 55.9 51.6052 63.6667 44.1052 66.5H43.1052C42.3052 66.9 36.4385 64.6667 33.6052 63.5Z" fill="#ADD2ED"/>
<path d="M0.105156 60.5C-1.09484 68.9 8.27182 77.6667 13.1052 81C5.50515 65 17.9042 53.1667 24.9042 49C28.896 47.0041 33.225 42.8295 36.6052 39C36.6052 39 40.0391 34.0051 41.1052 32.5V23.5C42.3052 13.9 27.6052 3.83333 20.1052 0C22.9052 2.8 24.2718 8.5 24.6052 11V27C28.6052 35.5 1.60516 50 0.105156 60.5Z" fill="#ADD2ED"/>
<path d="M38.1052 46C28.9052 49.2 21.6052 58.6667 19.1052 63V65.5L23.6052 63C24.1052 60 42.1052 57 49.6052 57C55.6052 57 61.1052 47.3333 63.1052 42.5V37C66.6052 26 47.6052 9 49.6052 11C51.2052 12.6 52.6052 22.3333 53.1052 27C51.9385 32 47.3052 42.8 38.1052 46Z" fill="#ADD2ED"/>
</svg>
