<svg width="69" height="89" viewBox="0 0 69 89" fill="none" xmlns="http://www.w3.org/2000/svg">
<path fill-rule="evenodd" clip-rule="evenodd" d="M24.551 2L24.051 22.5C21.3844 24.1667 16.551 28.4 18.551 32C20.551 35.6 22.7177 36.5 23.5511 36.5C25.0511 36 28.0511 34.6 28.0511 33V27.5L33.5511 17.5H34H34.5511H35L40.5 27.5V33C40.5 34.6 43.5 36 45 36.5C45.8333 36.5 48 35.6 50 32C52 28.4 47.1667 24.1667 44.5 22.5L44 2L47 0C48.1667 6.83333 51.6 20.9 56 22.5C60.5 27.8333 69.3 40.1 68.5 46.5V56.5C65 62.3333 58 74.5 58 76.5V82L56 78V68L58 61V58L54.5 52L53.5 56.5L46.5 67H45.5V73.5L44.5 75V76.5C43 81 39.2 89.6 36 88H34.0511H33.5511H32.5511C29.3511 89.6 25.5511 81 24.051 76.5V75L23.0511 73.5V67H22.0511L15.0511 56.5L14.0511 52L10.5511 58V61L12.5511 68V78L10.5511 82V76.5C10.5511 74.5 3.55105 62.3333 0.0510539 56.5V46.5C-0.748946 40.1 8.05105 27.8333 12.5511 22.5C16.9511 20.9 20.3844 6.83333 21.5511 0L24.551 2ZM20.5511 47.5C23.2177 48.3333 28.4511 51.5 28.0511 57.5C25.0511 56.5 19.3511 53.1 20.5511 47.5ZM47.9093 47.5C45.2426 48.3333 40.0093 51.5 40.4093 57.5C43.4093 56.5 49.1093 53.1 47.9093 47.5ZM32.5511 69.5L34.0511 72.5H35.0511L36.5511 69.5H38.5511L39.0511 70H39.5511V67H40.5511V64.5H41.5511V77H40.5511V79.5H39.5511V80.5H38.5511V79.5H37.5511V78.5H36.5511V77.5H35.5511V79.5H33.5511V77.5H32.5511V78.5H31.5511V79.5H30.5511V80.5H29.5511V79.5H28.5511V77H27.5511V64.5H28.5511V67H29.5511V70H30.0511L30.5511 69.5H32.5511Z" fill="#C9BCDC"/>
</svg>
