<svg width="70" height="84" viewBox="0 0 70 84" fill="none" xmlns="http://www.w3.org/2000/svg">
<path d="M35.5 84H33.5L11.5 73L10 66.5L7 60.5L4.5 55L0 49V46L5 28.5L10 34H11.5L31 15.5V3.5V0L44.5 14.5V17H43.5L43 20L42 24L41 25.5L34.75 28.5L28.5 31.5L23 36L19 41.5L18 43L17.5 46L17 48V54.5L18 56.5L25 64.5L33.5 71.5H35.5L41 67L45 62.5L49 58L52.5 53V51L52 50L49 46L44 42H38L35.5 43.5V48L41 51.5V54.5L35.5 60H33L25.5 54V49L27 42.5L31.5 37L41 34H51L60.5 46H62.5L63 45V39H64.5L69.5 44V48L68.5 49V52L67.5 54V58L67 59L35.5 84Z" fill="#F26C23"/>
</svg>
