<svg width="75" height="75" viewBox="0 0 75 75" fill="none" xmlns="http://www.w3.org/2000/svg">
<path d="M52.5 38L38 23L23 38L38 53.5L52.5 38Z" fill="#C4C4C4"/>
<path fill-rule="evenodd" clip-rule="evenodd" d="M37.5 75C58.2107 75 75 58.2107 75 37.5C75 16.7893 58.2107 0 37.5 0C16.7893 0 0 16.7893 0 37.5C0 58.2107 16.7893 75 37.5 75ZM38 68C54.5685 68 68 54.5685 68 38C68 21.4315 54.5685 8 38 8C21.4315 8 8 21.4315 8 38C8 54.5685 21.4315 68 38 68ZM38 23L52.5 38L38 53.5L23 38L38 23Z" fill="#C4C4C4"/>
</svg>
