<svg width="62" height="81" viewBox="0 0 62 81" fill="none" xmlns="http://www.w3.org/2000/svg">
<path d="M51 18.5L61 31V56.5L42 80.5H40.5L36 77V74.5L51 18.5Z" fill="#A8805D"/>
<path d="M34 61H28L19 14.5V10L25.5 1H36L43 10V14.5L34 61Z" fill="#A8805D"/>
<path d="M25.5 73.5V77L22 80.5H20L1 56.5V31.5L10 19H11L25.5 73.5Z" fill="#A8805D"/>
<path d="M51 18.5L61 31V56.5L42 80.5H40.5L36 77V74.5L51 18.5Z" stroke="#A8805D"/>
<path d="M34 61H28L19 14.5V10L25.5 1H36L43 10V14.5L34 61Z" stroke="#A8805D"/>
<path d="M25.5 73.5V77L22 80.5H20L1 56.5V31.5L10 19H11L25.5 73.5Z" stroke="#A8805D"/>
</svg>
