<svg width="70" height="69" viewBox="0 0 70 69" fill="none" xmlns="http://www.w3.org/2000/svg">
<path d="M9 9H10.5V16L11.5 20H13.5V18L16.5 12L21.5 6.5L27 2.5L34 0H44.5L52 3L57.5 6.5L61 10L66 19V21L67 23V31L65 36V38L68 39.5L69.5 43.5V51L68 53.5L67.5 55L66 56V53.5L53.5 65.5H52L60 52V41L58.5 35L54.5 29.5L50 24.5L47 22.5L43.5 21V19L45 16.5L47 15L49 13L51.5 11H45.5L41.5 12L38 13.5L35 16.5L33 20L32.5 23L29.5 24L27.5 26L25 28L23.5 31V32.5L29 29.5H35.5L42 31.5L46 35.5L49 40.5L49.5 45V49.5L48 56L43.5 62.5L38 66L31 68.5H27.5L17.5 66L9 59.5L3 51L0 42.5V29.5L3 19L9 9Z" fill="#67C4B0"/>
</svg>
