<svg width="48" height="56" viewBox="0 0 48 56" fill="none" xmlns="http://www.w3.org/2000/svg">
<path d="M0.388371 12.5123C0.388371 10.3969 0.886826 8.43958 1.88373 6.63421C2.90495 4.8106 4.29698 3.36995 6.05373 2.32441C7.81047 1.26064 9.71309 0.725708 11.7495 0.725708C13.3664 0.725708 14.8739 1.04181 16.2781 1.68615C17.7005 2.32441 18.9102 3.19366 19.9071 4.28783C20.9283 5.3516 21.7246 6.59773 22.296 8.02623C22.8674 9.44864 23.147 10.944 23.147 12.5123C23.147 14.6034 22.6486 16.5607 21.6517 18.3904C20.6548 20.2201 19.281 21.679 17.5242 22.7732C15.7675 23.8612 13.8405 24.4083 11.7495 24.4083C9.61583 24.4083 7.67066 23.8612 5.91391 22.7732C4.1754 21.679 2.82594 20.2201 1.85334 18.3904C0.874673 16.5364 0.388371 14.5791 0.388371 12.5123V12.5123ZM9.08091 45.9208L32.6237 4.56745C33.3836 3.2666 34.0948 2.3001 34.7634 1.68615C35.426 1.04181 36.2223 0.725708 37.1463 0.725708C37.9304 0.725708 38.6538 0.91415 39.3224 1.29103C39.985 1.64967 40.5078 2.14813 40.8847 2.78639C41.2676 3.40642 41.4561 4.069 41.4561 4.78629C41.4561 5.66162 41.2676 6.4944 40.8847 7.27855C40.5078 8.03839 39.9364 9.03529 39.1766 10.2693L15.6337 51.6227C14.9469 52.8809 14.26 53.8414 13.567 54.504C12.8801 55.1726 12.0595 55.5009 11.1112 55.5009C9.90154 55.5009 8.88032 55.0997 8.04753 54.2912C7.21475 53.4828 6.8014 52.5223 6.8014 51.4099C6.8014 50.5285 6.97768 49.72 7.33632 48.9845C7.7132 48.249 8.29676 47.2278 9.08091 45.9208V45.9208ZM8.69188 12.5123C8.69188 13.5092 8.96542 14.3542 9.50642 15.0411C10.0778 15.7036 10.8255 16.0379 11.7495 16.0379C12.7038 16.0379 13.4515 15.7036 13.9986 15.0411C14.5396 14.3542 14.8131 13.5092 14.8131 12.5123C14.8131 11.5397 14.5396 10.7313 13.9986 10.093C13.4515 9.42433 12.7038 9.09608 11.7495 9.09608C10.8255 9.09608 10.0778 9.42433 9.50642 10.093C8.96542 10.7313 8.69188 11.5397 8.69188 12.5123V12.5123ZM33.4443 43.6778C33.4443 44.6018 33.7179 45.4102 34.265 46.0971C34.8303 46.7658 35.578 47.1001 36.508 47.1001C37.432 47.1001 38.1675 46.7658 38.7146 46.0971C39.286 45.4102 39.5717 44.6018 39.5717 43.6778C39.5717 42.7052 39.286 41.8846 38.7146 41.222C38.1675 40.529 37.432 40.1886 36.508 40.1886C35.578 40.1886 34.8303 40.529 34.265 41.222C33.7179 41.8846 33.4443 42.7052 33.4443 43.6778ZM25.1104 43.6778C25.1104 41.5381 25.6089 39.5686 26.6058 37.7632C27.627 35.9396 29.0008 34.4868 30.7393 33.423C32.4961 32.3289 34.4169 31.7818 36.508 31.7818C38.5991 31.7818 40.5078 32.3289 42.2402 33.423C43.9727 34.5111 45.3404 35.97 46.3373 37.7997C47.3585 39.6051 47.8691 41.5624 47.8691 43.6778C47.8691 45.7689 47.3585 47.7141 46.3373 49.5194C45.3404 51.3248 43.9727 52.7715 42.2402 53.8657C40.5078 54.9599 38.5991 55.5009 36.508 55.5009C34.344 55.5009 32.3867 54.9659 30.6299 53.9022C28.8975 52.808 27.5419 51.3491 26.5693 49.5194C25.5967 47.6898 25.1104 45.7446 25.1104 43.6778V43.6778Z" fill="#C4C4C4"/>
</svg>
