<svg width="59" height="83" viewBox="0 0 59 83" fill="none" xmlns="http://www.w3.org/2000/svg">
<path d="M48 83H11V75H17.5V68.5H17H16.5V62.5H15.5V57L15 56.5V53.5H16.5L27.5 59.5H30.5L41.5 53.5H44.5V56.5L43.5 57V62L42.5 63V68L41.5 68.5V75H48V83Z" fill="#C4C4C4"/>
<path fill-rule="evenodd" clip-rule="evenodd" d="M18 0V18.5L12.5 15.5H10L0 22V26.5L1 28V30L2 32V34L3 36V37.5L28 52.5H31L57 37.5V34L58 31.5V28.5L59 25.5V22.5L49.5 15.5H47L41 18.5V0H18ZM28.5 34.5H30.5L39.5 31.5H42L30.5 40.5H28.5L17 32H21L28.5 34.5ZM26 8V19L28.5 21.5H30.5L33 19V8H26Z" fill="#C4C4C4"/>
</svg>
